<?xml version="1.0" encoding="UTF-8"?><svg xmlns="http://www.w3.org/2000/svg" viewBox="0 0 146.29 75.67"><defs><style>.j{letter-spacing:0em;}.j,.k,.l,.m,.n{font-family:Montserrat-Regular, Montserrat;}.o,.p{font-family:Montserrat-Bold, Montserrat;}.o,.l{letter-spacing:0em;}.p{letter-spacing:0em;}.q{font-size:10.64px;}.q,.r{fill:#f2f2f2;}.k{letter-spacing:0em;}.m{letter-spacing:-.02em;}.s{fill:#fb8501;stroke:#fb8501;stroke-miterlimit:10;stroke-width:.67px;}.n{letter-spacing:0em;}</style></defs><g id="a"/><g id="b"/><g id="c"/><g id="d"/><g id="e"/><g id="f"/><g id="g"/><g id="h"/><g id="i"><g><path class="r" d="M49.66,56.55c.02,.57-.45,1.05-1.02,1.05h-13.2c-.56,0-1-.46-1.02-1.02-.28-12.11-5.66-18.08-15.38-18.68v18.66c0,.57-.46,1.03-1.02,1.03H5.38c-.57,0-1.02-.47-1.02-1.03V5.66c0-.57,.45-1.03,1.02-1.03h12.64c.57,0,1.02,.47,1.02,1.03V24.32c9.72-.59,15.09-6.57,15.38-18.68,.02-.56,.46-1.02,1.02-1.02h13.2c.57,0,1.03,.48,1.02,1.05-.28,13.19-5.75,21.03-12.15,25.44,6.39,4.41,11.87,12.25,12.15,25.44Z"/><path class="r" d="M93.6,56.57c.02,.57-.45,1.04-1.03,1.04h-13.57c-.56,0-1-.45-1.02-1-.31-8.56-4.59-12.98-11.34-13.41v13.4c0,.57-.46,1.02-1.02,1.02h-12.65c-.57,0-1.02-.46-1.02-1.02V5.54c0-.57,.45-1.02,1.02-1.02h24.84c8.57,0,15.51,6.01,15.52,18.74,0,7.49-2.42,12.63-6.15,15.62,3.82,4.35,6.2,10.26,6.41,17.7Zm-26.97-27.29c0,.27,.23,.48,.51,.48h5.97c2.98,0,5.39-2.28,5.39-6.05s-2.41-6.05-5.39-6.05h-5.97c-.28,0-.51,.21-.51,.48v11.14Z"/><text class="q" transform="translate(32.39 69.95)"><tspan class="l" x="0" y="0">Im</tspan><tspan class="k" x="14.39" y="0">p</tspan><tspan class="l" x="21.52" y="0">a</tspan><tspan class="j" x="27.74" y="0">c</tspan><tspan class="m" x="33.74" y="0">t</tspan><tspan class="n" x="37.8" y="0">o a </tspan><tspan class="o" x="56.11" y="0">36</tspan><tspan class="p" x="69.07" y="0">0</tspan><tspan class="o" x="76.28" y="0">ยบ</tspan></text><g><path class="s" d="M140.18,19.96h-12.64c-.56,0-1.02,.53-1.02,1.19v12.39c0,4.65-1.93,10.14-7.96,10.14s-7.96-5.49-7.96-10.14v-12.39c0-.66-.46-1.19-1.02-1.19h-12.65c-.56,0-1.02,.53-1.02,1.19v12.06c0,11.55,5.5,25.17,22.64,25.17h0c17.13,0,22.63-13.62,22.63-25.17v-12.06c0-.66-.45-1.19-1.02-1.19Z"/><path class="s" d="M103.11,17.43c3.27,0,5.92-2.65,5.92-5.92s-2.65-5.92-5.92-5.92-5.92,2.65-5.92,5.92,2.65,5.92,5.92,5.92Z"/><path class="s" d="M133.58,17.43c3.27,0,5.92-2.65,5.92-5.92s-2.65-5.92-5.92-5.92-5.92,2.65-5.92,5.92,2.65,5.92,5.92,5.92Z"/></g></g></g></svg>