<?xml version="1.0" encoding="UTF-8"?><svg xmlns="http://www.w3.org/2000/svg" viewBox="0 0 1920 672.78"><defs><style>.j{fill:#022533;}.k{fill:#044159;}.l{fill:#023047;}</style></defs><g id="a"/><g id="b"/><g id="c"><g><g><polygon class="j" points="268.59 381.76 205 194.89 116.23 197.04 49.71 63.95 0 78.86 0 391.13 268.59 381.76"/><polygon class="l" points="539 636.12 518.25 531.99 334.32 476.96 306.2 394.19 72.65 317.01 0 331.07 0 672.78 528.49 672.78 546.31 672.78 662.05 672.78 539 636.12"/><polygon class="j" points="1602.41 278.8 1557.59 241.87 1462.2 364.14 1404.41 356.76 1330.31 527.94 1504.58 500.81 1602.41 417.68 1602.41 278.8"/><polygon class="l" points="1236.23 672.78 1299.71 537.95 1514.23 467.79 1654.39 167.4 1820 12.58 1896.03 42.34 1920 63.3 1920 672.78 1236.23 672.78"/><polygon class="k" points="1557.59 241.87 1462.2 364.14 1404.41 356.76 1330.31 527.94 1456.76 486.58 1481.23 377.31 1545.45 333.13 1557.59 241.87"/><polygon class="k" points="49.71 63.95 27.7 110.48 60.03 209.14 176.3 227.54 228.44 368.49 268.59 381.76 205 194.89 116.23 197.04 49.71 63.95"/><g><polygon class="k" points="72.65 317.01 42.83 454.03 334.32 476.96 306.2 394.19 72.65 317.01"/><polygon class="k" points="539 636.12 518.25 531.99 334.32 476.96 218.37 467.84 422.1 555.84 497.31 649.39 662.05 672.78 539 636.12"/></g></g><polygon class="k" points="1236.23 672.78 1350.64 578.56 1572.08 513.19 1772.98 177.56 1820 12.58 1654.39 167.4 1514.23 467.79 1299.71 537.95 1236.23 672.78"/></g></g><g id="d"/><g id="e"/><g id="f"/><g id="g"/><g id="h"/><g id="i"/></svg>