<svg xmlns="http://www.w3.org/2000/svg" viewBox="0 0 259.25 72.05"><defs><style>.j{letter-spacing:-.02em}.j,.k,.l,.m{fill:#023047;font-family:Montserrat-Regular,Montserrat}.k{letter-spacing:0}.n,.o{fill:#fb8501;font-family:Montserrat-Black,Montserrat}.p{font-size:13.43px}.m,.o,.q{letter-spacing:0}.r{fill:#f2f2f2}</style></defs><g id="i"><g><path d="M254.9,30.61c0-14.88-12.06-26.94-26.94-26.94H31.29C16.41,3.67,4.35,15.73,4.35,30.61h0c0,14.88,12.06,26.94,26.94,26.94H227.97c3.81,0,7.44-.8,10.73-2.23l14.76,13.06-3.43-22.32c3.07-4.37,4.88-9.7,4.88-15.45h0Z" class="r"/><text class="p" transform="translate(31.44 26.17)"><tspan x="0" y="0" class="l">¡Hola!, s</tspan><tspan x="50.79" y="0" class="j">o</tspan><tspan x="59.01" y="0" class="k">y </tspan><tspan x="69.8" y="0" class="o">K</tspan><tspan x="79.95" y="0" class="n">rubot</tspan><tspan x="120.13" y="0" class="m">, si tienes</tspan><tspan class="l"><tspan x="0" y="16.12">alguna duda habla </tspan><tspan x="130.14" y="16.12" class="q">c</tspan><tspan x="137.58" y="16.12">onmigo ;)</tspan></tspan></text></g></g></svg>