<?xml version="1.0" encoding="UTF-8"?><svg xmlns="http://www.w3.org/2000/svg" viewBox="0 0 259.25 72.05"><defs><style>.j{letter-spacing:-.02em;}.j,.k,.l,.m{fill:#023047;font-family:Montserrat-Regular, Montserrat;}.k{letter-spacing:0em;}.n,.o{fill:#fb8501;font-family:Montserrat-Black, Montserrat;}.p{font-size:13.43px;}.o{letter-spacing:0em;}.q{letter-spacing:0em;}.m{letter-spacing:0em;}.r{fill:#f2f2f2;}</style></defs><g id="a"/><g id="b"/><g id="c"/><g id="d"/><g id="e"/><g id="f"/><g id="g"/><g id="h"/><g id="i"><g><path class="r" d="M254.9,30.61c0-14.88-12.06-26.94-26.94-26.94H31.29C16.41,3.67,4.35,15.73,4.35,30.61h0c0,14.88,12.06,26.94,26.94,26.94H227.97c3.81,0,7.44-.8,10.73-2.23l14.76,13.06-3.43-22.32c3.07-4.37,4.88-9.7,4.88-15.45h0Z"/><text class="p" transform="translate(31.44 26.17)"><tspan class="l" x="0" y="0">¡Hola!, s</tspan><tspan class="j" x="50.79" y="0">o</tspan><tspan class="k" x="59.01" y="0">y </tspan><tspan class="o" x="69.8" y="0">K</tspan><tspan class="n" x="79.95" y="0">rubot</tspan><tspan class="m" x="120.13" y="0">, si tienes</tspan><tspan class="l"><tspan x="0" y="16.12">alguna duda habla </tspan><tspan class="q" x="130.14" y="16.12">c</tspan><tspan x="137.58" y="16.12">onmigo ;)</tspan></tspan></text></g></g></svg>